<svg xmlns="http://www.w3.org/2000/svg" viewBox="0 0 64 64">
  <path d="M32 5 C16.5 5 5 15 5 27.5 C5 40 16.5 50 32 50 c2.3 0 4.5 -0.2 6.6 -0.6 L50.5 55 L48 44.6 C54.5 40.4 59 34.4 59 27.5 C59 15 47.5 5 32 5 Z" fill="#1E3A38"/>
  <g fill="#FFFFFF">
    <rect x="25" y="21" width="3.8" height="12" rx="1.9"/>
    <rect x="29.8" y="17" width="3.8" height="16" rx="1.9"/>
    <rect x="34.6" y="16" width="3.8" height="17" rx="1.9"/>
    <rect x="39.4" y="18.5" width="3.8" height="14" rx="1.9"/>
    <rect x="15" y="29.9" width="12" height="4.2" rx="2.1" transform="rotate(40 27 32)"/>
    <rect x="24" y="28" width="19.2" height="13" rx="6"/>
  </g>
  <path d="M47 21 a 9.5 9.5 0 0 1 0 14" stroke="#E8654F" stroke-width="3" stroke-linecap="round" fill="none"/>
</svg>
